# xmcd
#
# Track frame offsets:
#	150
#	13621
#	28325
#	43050
#	56989
#	72539
#	89081
#	102903
#	117670
#	131524
#	145403
#	158435
#	171423
#	184467
#	197720
#	211952
#	224246
#	237880
#	253018
#	267596
#	281935
#	296368
#	309949
#	324191
#	338083
#
# Disc length: 4698 seconds
#
# Revision: 1
# Processed by: cddbd v1.5.2PL0 Copyright (c) Steve Scherf et al.
# Submitted via: audiograbber 1.83.01
#
DISCID=9a125819
DTITLE=Sleepy John Estes - Sleepy John Estes
DYEAR=2006
DGENRE=Blues
TTITLE0=The Girl I Love, She Got Long Curly Hair
TTITLE1=Broken-Hearted, Ragged and Dirty Too
TTITLE2=Divin' Duck Blues
TTITLE3=Little Sarah
TTITLE4=Black Mattie Blues
TTITLE5=T-Bone Steak Blues
TTITLE6=Milk Cow Blues
TTITLE7=Street Car Blues
TTITLE8=Expressman Blues
TTITLE9=Whatcha Doin ?
TTITLE10=Poor John Blues
TTITLE11=Stack O'Dollars
TTITLE12=My Black Gal Blues
TTITLE13=Sweet Mama
TTITLE14=Down South Blues
TTITLE15=Stop That Thing
TTITLE16=Someday Baby Blues
TTITLE17=Who's Been Telling You Buddy Brown Blues
TTITLE18=Married Woman Blues
TTITLE19=Drop Down Mama
TTITLE20=Government Money
TTITLE21=I Wanna Tear It All the Time
TTITLE22=Vernita Blues
TTITLE23=I Ain't Gonna Be Worried No More
TTITLE24=Floating Bridge
EXTD=JSP7779 (4 Cd)
EXTT0=
EXTT1=
EXTT2=
EXTT3=
EXTT4=
EXTT5=
EXTT6=
EXTT7=
EXTT8=
EXTT9=
EXTT10=
EXTT11=
EXTT12=
EXTT13=
EXTT14=
EXTT15=
EXTT16=
EXTT17=
EXTT18=
EXTT19=
EXTT20=
EXTT21=
EXTT22=
EXTT23=
EXTT24=
PLAYORDER=
